<?xml version="1.0" encoding="utf-8"?><svg xml:space="preserve" viewBox="0 0 100 100" y="0" x="0" xmlns="http://www.w3.org/2000/svg" id="Layer_1" version="1.1" width="200px" height="200px" xmlns:xlink="http://www.w3.org/1999/xlink" style="width:100%;height:100%;background-size:initial;background-repeat-y:initial;background-repeat-x:initial;background-position-y:initial;background-position-x:initial;background-origin:initial;background-image:initial;background-color:rgb(255, 255, 255);background-clip:initial;background-attachment:initial;animation-play-state:paused" ><g class="ldl-scale" style="transform-origin:50% 50%;transform:rotate(0deg) scale(0.8, 0.8);animation-play-state:paused" ><path d="M83.477 36.594v23.5" stroke-width="3.5" stroke="#333" fill="none" stroke-miterlimit="10" style="stroke:rgb(65, 63, 63);animation-play-state:paused" ></path>
<circle fill="#333" r="4" cy="48.315" cx="83.477" style="fill:rgb(65, 63, 63);animation-play-state:paused" ></circle>
<path fill="#333" d="M87.477 79.104h-8V60.275a4 4 0 0 1 8 0v18.829z" style="fill:rgb(65, 63, 63);animation-play-state:paused" ></path>
<path stroke="#333" fill="#666766" stroke-miterlimit="10" stroke-width="3.5" d="M70.017 58c-13.344 9.178-26.689 9.178-40.033 0-1.755-1.207-2.77-3.233-2.77-5.363v-11.26c0-1.754 1.842-2.926 3.414-2.146 12.915 6.408 25.83 6.408 38.745 0 1.572-.78 3.414.392 3.414 2.146v11.26c-.001 2.131-1.015 4.156-2.77 5.363z" style="stroke:rgb(65, 63, 63);fill:rgb(111, 112, 111);animation-play-state:paused" ></path>
<path stroke-miterlimit="10" stroke-width="3.5" stroke="#333" fill="#333" d="M88.902 37.483L50.605 51.196a1.5 1.5 0 0 1-1.21 0L11.098 37.483c-1.464-.526-1.464-2.221 0-2.747l38.297-13.713a1.5 1.5 0 0 1 1.21 0l38.297 13.713c1.464.527 1.464 2.221 0 2.747z" style="stroke:rgb(65, 63, 63);fill:rgb(65, 63, 63);animation-play-state:paused" ></path>
<metadata xmlns:d="https://loading.io/stock/" style="animation-play-state:paused" ><d:name style="animation-play-state:paused" >education</d:name>


<d:tags style="animation-play-state:paused" >education,study,learn,research,college,graduate,phd,doctor,teach,instructor,lecturer</d:tags>


<d:license style="animation-play-state:paused" >by</d:license>


<d:slug style="animation-play-state:paused" >qrutr</d:slug></metadata></g><!-- generated by https://loading.io/ --></svg>